<svg width="48" height="48" viewBox="0 0 48 48" fill="none" xmlns="http://www.w3.org/2000/svg">
<path d="M21.5711 45.5484C21.6919 45.7168 21.7544 45.9201 21.7491 46.1273C21.7439 46.3345 21.6711 46.5344 21.5419 46.6965C21.4128 46.8586 21.2342 46.9741 21.0334 47.0255C20.8326 47.0769 20.6205 47.0614 20.4293 46.9813C15.2571 44.7882 9.21387 40.041 9.21387 31.8692C9.21387 21.8553 19.1971 18.0357 21.6388 10.233C22.4403 7.78375 22.8182 5.21578 22.7562 2.63951C22.7523 2.4917 22.7951 2.34643 22.8785 2.22429C22.9618 2.10216 23.0815 2.00935 23.2205 1.95903C23.3595 1.90871 23.5109 1.90343 23.6531 1.94393C23.7953 1.98443 23.9212 2.06867 24.0128 2.18469C26.8607 5.71205 28.4887 10.0673 28.6531 14.5978C28.9749 21.4988 21.5884 27.0448 19.1499 32.6246C16.9568 37.7275 19.4937 42.6731 21.5711 45.5484Z" fill="url(#paint0_linear_674_28413)"/>
<path d="M39.2688 41.3904C39.2688 42.2921 38.9106 43.1568 38.273 43.7944C37.6354 44.432 36.7707 44.7902 35.869 44.7902C34.9674 44.7902 34.1026 44.432 33.4651 43.7944C32.8275 43.1568 32.4693 42.2921 32.4693 41.3904C32.4693 41.1176 32.5047 40.8488 32.5755 40.5839L27.4859 38.0485C26.8627 38.6349 26.0392 38.9613 25.1835 38.9613C24.282 38.9613 23.4173 38.6032 22.7798 37.9657C22.1423 37.3282 21.7842 36.4635 21.7842 35.562C21.7842 34.6604 22.1423 33.7958 22.7798 33.1583C23.4173 32.5208 24.282 32.1626 25.1835 32.1626C26.0397 32.1626 26.8627 32.4892 27.4859 33.0754L32.5755 30.5401C32.5051 30.277 32.4691 30.0059 32.4685 29.7335C32.4687 29.0613 32.6681 28.4041 33.0417 27.8452C33.4153 27.2863 33.9462 26.8508 34.5673 26.5936C35.1885 26.3364 35.8719 26.2691 36.5312 26.4003C37.1906 26.5315 37.7962 26.8552 38.2715 27.3306C38.7469 27.806 39.0707 28.4116 39.2018 29.0709C39.333 29.7303 39.2658 30.4137 39.0086 31.0348C38.7514 31.6559 38.3158 32.1868 37.7569 32.5604C37.198 32.934 36.5409 33.1335 35.8686 33.1336C35.0129 33.1337 34.1895 32.8072 33.5662 32.2209L28.4766 34.7554C28.6183 35.2842 28.6183 35.8405 28.4766 36.3685L33.5662 38.9039C34.1895 38.3175 35.0129 37.9911 35.8686 37.9911C36.7702 37.9911 37.6348 38.3492 38.2723 38.9867C38.9098 39.6242 39.2688 40.4889 39.2688 41.3904Z" fill="url(#paint1_linear_674_28413)"/>
<defs>
<linearGradient id="paint0_linear_674_28413" x1="18.9382" y1="1.91558" x2="18.9382" y2="47.0545" gradientUnits="userSpaceOnUse">
<stop stop-color="#2DD4BF"/>
<stop offset="1" stop-color="#7217F6" stop-opacity="0.8"/>
</linearGradient>
<linearGradient id="paint1_linear_674_28413" x1="30.5265" y1="26.3342" x2="30.5265" y2="44.7898" gradientUnits="userSpaceOnUse">
<stop stop-color="#2DD4BF"/>
<stop offset="1" stop-color="#7217F6" stop-opacity="0.8"/>
</linearGradient>
</defs>
</svg>
